<svg width="60" height="60" viewBox="0 0 60 60" fill="none" xmlns="http://www.w3.org/2000/svg">
<g clip-path="url(#clip0_2870_2056)">
<path d="M57.4668 40.674C58.982 40.0873 60 38.5941 60 36.9583V29.3895C60 27.1463 58.1749 25.3211 55.9315 25.3211H55.5161C56.7476 23.7267 56.634 21.4213 55.1725 19.9597L49.8206 14.6078C48.664 13.4512 46.8884 13.1151 45.402 13.7715C44.6036 14.1243 43.6525 13.9463 43.0352 13.329C42.4179 12.7115 42.2399 11.7604 42.5924 10.9621C43.2489 9.4759 42.9129 7.70013 41.7561 6.54343L36.4044 1.19154C34.8182 -0.394459 32.2371 -0.394694 30.6507 1.19154L6.52129 25.3211H4.06847C1.82506 25.3211 0 27.1463 0 29.3895V36.9583C0 38.5941 1.018 40.0874 2.53318 40.6739C3.34694 40.9891 3.89376 41.7874 3.89376 42.6605C3.89376 43.5336 3.34694 44.332 2.53318 44.6471C1.018 45.234 0 46.7273 0 48.363V55.9316C0 58.1749 1.82506 60 4.06847 60H55.9315C58.1749 60 60 58.1749 60 55.9316V48.363C60 46.7273 58.9821 45.234 57.4669 44.6471C56.6531 44.3319 56.1062 43.5336 56.1062 42.6605C56.1062 41.7874 56.6531 40.9891 57.4668 40.674ZM33.1464 3.68742C33.3566 3.47719 33.6986 3.47719 33.9087 3.68731L39.2605 9.03919C39.3945 9.17319 39.436 9.37284 39.3638 9.53625C38.4269 11.6575 38.8994 14.1847 40.5394 15.8246C42.1794 17.4646 44.7066 17.937 46.828 17.0001C46.9912 16.9281 47.1909 16.9695 47.3249 17.1035L52.6767 22.4553C52.8869 22.6655 52.8869 23.0077 52.6768 23.2177L50.5733 25.3211H41.3778L26.4452 10.3885L33.1464 3.68742ZM23.9495 12.8841L36.3866 25.3211H11.5125L23.9495 12.8841ZM3.52941 55.9316V48.363C3.52941 48.1734 3.64129 48.0028 3.80776 47.9384C5.97024 47.1008 7.42306 44.9799 7.42306 42.6605C7.42306 40.3411 5.97012 38.2201 3.80753 37.3826C3.64118 37.3183 3.52941 37.1477 3.52941 36.9583V29.3895C3.52941 29.0924 3.77129 28.8505 4.06847 28.8505H44.1176V56.4706H4.06847C3.77129 56.4706 3.52941 56.2288 3.52941 55.9316ZM56.4706 36.9583C56.4706 37.1477 56.3588 37.3183 56.1924 37.3827C54.0299 38.2203 52.5768 40.3412 52.5768 42.6606C52.5768 44.98 54.0298 47.101 56.1922 47.9384C56.3587 48.0028 56.4706 48.1735 56.4706 48.363V55.9316C56.4706 56.2287 56.2287 56.4706 55.9315 56.4706H47.6471V28.8505H55.9315C56.2287 28.8505 56.4706 29.0924 56.4706 29.3895V36.9583Z" fill="#FC8135"/>
<path d="M12.353 33.5283H38.8236V37.0577H12.353V33.5283Z" fill="#FC8135"/>
<path d="M12.353 40.5869H38.8236V44.1163H12.353V40.5869Z" fill="#FC8135"/>
<path d="M12.353 47.6465H38.8236V51.1759H12.353V47.6465Z" fill="#FC8135"/>
</g>
<defs>
<clipPath id="clip0_2870_2056">
<rect width="60" height="60" fill="white"/>
</clipPath>
</defs>
</svg>
