<svg width="60" height="61" viewBox="0 0 60 61" fill="none" xmlns="http://www.w3.org/2000/svg">
<g clip-path="url(#clip0_2870_2076)">
<path d="M57.4668 41.174C58.982 40.5873 60 39.0941 60 37.4583V29.8895C60 27.6463 58.1749 25.8211 55.9315 25.8211H55.5161C56.7476 24.2267 56.634 21.9213 55.1725 20.4597L49.8206 15.1078C48.664 13.9512 46.8884 13.6151 45.402 14.2715C44.6036 14.6243 43.6525 14.4462 43.0352 13.829C42.4179 13.2115 42.2399 12.2604 42.5924 11.4621C43.2489 9.9759 42.9129 8.20013 41.7561 7.04343L36.4044 1.69154C34.8182 0.105541 32.2371 0.105306 30.6507 1.69154L6.52129 25.8211H4.06847C1.82506 25.8211 0 27.6463 0 29.8895V37.4583C0 39.0941 1.018 40.5874 2.53318 41.1739C3.34694 41.4891 3.89376 42.2874 3.89376 43.1605C3.89376 44.0336 3.34694 44.832 2.53318 45.1471C1.018 45.734 0 47.2273 0 48.863V56.4315C0 58.6748 1.82506 60.5 4.06847 60.5H55.9315C58.1749 60.5 60 58.6748 60 56.4315V48.863C60 47.2273 58.9821 45.734 57.4669 45.1471C56.6531 44.8319 56.1062 44.0336 56.1062 43.1605C56.1062 42.2874 56.6531 41.4891 57.4668 41.174ZM33.1464 4.18742C33.3566 3.97719 33.6986 3.97719 33.9087 4.18731L39.2605 9.53919C39.3945 9.67319 39.436 9.87284 39.3638 10.0362C38.4269 12.1575 38.8994 14.6847 40.5394 16.3246C42.1794 17.9646 44.7066 18.437 46.828 17.5001C46.9912 17.4281 47.1909 17.4695 47.3249 17.6035L52.6767 22.9553C52.8869 23.1655 52.8869 23.5077 52.6768 23.7177L50.5733 25.8211H41.3778L26.4452 10.8885L33.1464 4.18742ZM23.9495 13.3841L36.3866 25.8211H11.5125L23.9495 13.3841ZM3.52941 56.4315V48.863C3.52941 48.6734 3.64129 48.5028 3.80776 48.4384C5.97024 47.6008 7.42306 45.4799 7.42306 43.1605C7.42306 40.8411 5.97012 38.7201 3.80753 37.8826C3.64118 37.8183 3.52941 37.6477 3.52941 37.4583V29.8895C3.52941 29.5924 3.77129 29.3505 4.06847 29.3505H44.1176V56.9706H4.06847C3.77129 56.9706 3.52941 56.7288 3.52941 56.4315ZM56.4706 37.4583C56.4706 37.6477 56.3588 37.8183 56.1924 37.8827C54.0299 38.7203 52.5768 40.8412 52.5768 43.1606C52.5768 45.48 54.0298 47.601 56.1922 48.4384C56.3587 48.5028 56.4706 48.6735 56.4706 48.863V56.4315C56.4706 56.7287 56.2287 56.9706 55.9315 56.9706H47.6471V29.3505H55.9315C56.2287 29.3505 56.4706 29.5924 56.4706 29.8895V37.4583Z" fill="#FFBB00"/>
<path d="M12.353 34.0283H38.8236V37.5577H12.353V34.0283Z" fill="#FFBB00"/>
<path d="M12.353 41.0879H38.8236V44.6173H12.353V41.0879Z" fill="#FFBB00"/>
<path d="M12.353 48.1465H38.8236V51.6759H12.353V48.1465Z" fill="#FFBB00"/>
</g>
<defs>
<clipPath id="clip0_2870_2076">
<rect width="60" height="60" fill="white" transform="translate(0 0.5)"/>
</clipPath>
</defs>
</svg>
